<mxfile host="65bd71144e">
    <diagram id="ekXSIbV9yLnhJNAscS5V" name="ページ1">
        <mxGraphModel dx="1659" dy="563" grid="1" gridSize="10" guides="1" tooltips="1" connect="1" arrows="1" fold="1" page="1" pageScale="1" pageWidth="827" pageHeight="1169" math="0" shadow="0">
            <root>
                <mxCell id="0"/>
                <mxCell id="118" value="枠線専用レイヤー" style="" parent="0"/>
                <mxCell id="178" value="" style="group;strokeColor=#0000FF;dashed=1;container=0;" parent="118" vertex="1" connectable="0">
                    <mxGeometry x="-40" y="1020" width="590" height="650" as="geometry"/>
                </mxCell>
                <mxCell id="124" value="" style="rounded=0;whiteSpace=wrap;html=1;dashed=1;fillColor=none;strokeColor=#0000FF;" parent="118" vertex="1">
                    <mxGeometry x="-40" y="1720" width="590" height="500" as="geometry"/>
                </mxCell>
                <mxCell id="122" value="&lt;span style=&quot;font-weight: normal;&quot;&gt;&lt;font style=&quot;font-size: 14px;&quot;&gt;URL&lt;/font&gt;&lt;/span&gt;" style="swimlane;whiteSpace=wrap;html=1;align=left;" parent="118" vertex="1">
                    <mxGeometry y="1350" width="150" height="60" as="geometry"/>
                </mxCell>
                <mxCell id="123" value="メイン画面" style="text;align=center;verticalAlign=middle;resizable=0;points=[];autosize=1;strokeColor=none;fillColor=none;fontSize=18;fontColor=#FF9933;fontStyle=1" parent="122" vertex="1">
                    <mxGeometry x="20" y="20" width="110" height="40" as="geometry"/>
                </mxCell>
                <mxCell id="127" value="&lt;span style=&quot;font-weight: normal;&quot;&gt;&lt;font style=&quot;font-size: 14px;&quot;&gt;URL&lt;/font&gt;&lt;/span&gt;" style="swimlane;whiteSpace=wrap;html=1;align=left;" parent="118" vertex="1">
                    <mxGeometry y="670" width="150" height="80" as="geometry"/>
                </mxCell>
                <mxCell id="128" value="メイン画面" style="text;align=center;verticalAlign=middle;resizable=0;points=[];autosize=1;strokeColor=none;fillColor=none;fontSize=18;fontColor=#FF9933;fontStyle=1" parent="127" vertex="1">
                    <mxGeometry x="20" y="30" width="110" height="40" as="geometry"/>
                </mxCell>
                <mxCell id="136" value="" style="shape=flexArrow;endArrow=classic;html=1;exitX=1;exitY=0.5;exitDx=0;exitDy=0;strokeColor=#FF9933;strokeWidth=2;entryX=-0.033;entryY=0.233;entryDx=0;entryDy=0;entryPerimeter=0;" parent="118" edge="1">
                    <mxGeometry width="50" height="50" relative="1" as="geometry">
                        <mxPoint x="319.84000000000003" y="240" as="sourcePoint"/>
                        <mxPoint x="454.11" y="239.6099999999999" as="targetPoint"/>
                    </mxGeometry>
                </mxCell>
                <mxCell id="137" value="登録案件を検索" style="text;html=1;align=center;verticalAlign=middle;whiteSpace=wrap;rounded=0;" parent="118" vertex="1">
                    <mxGeometry x="340" y="200" width="90" height="30" as="geometry"/>
                </mxCell>
                <mxCell id="138" value="全案件から&quot;進行中&quot;&lt;div&gt;案件を取得&lt;/div&gt;" style="text;html=1;align=left;verticalAlign=middle;whiteSpace=wrap;rounded=0;" parent="118" vertex="1">
                    <mxGeometry x="330" y="310" width="120" height="30" as="geometry"/>
                </mxCell>
                <mxCell id="140" value="" style="shape=flexArrow;endArrow=classic;html=1;exitX=1;exitY=0.5;exitDx=0;exitDy=0;strokeColor=#FF9933;strokeWidth=2;entryX=-0.033;entryY=0.233;entryDx=0;entryDy=0;entryPerimeter=0;dashed=1;" parent="118" edge="1">
                    <mxGeometry width="50" height="50" relative="1" as="geometry">
                        <mxPoint x="452.13" y="290" as="sourcePoint"/>
                        <mxPoint x="317.88" y="290" as="targetPoint"/>
                    </mxGeometry>
                </mxCell>
                <mxCell id="146" value="" style="group" parent="118" vertex="1" connectable="0">
                    <mxGeometry x="150" y="710" width="109.98750000000018" height="45.59000000000003" as="geometry"/>
                </mxCell>
                <mxCell id="147" value="" style="shape=flexArrow;endArrow=classic;html=1;strokeColor=#FF9933;strokeWidth=2;entryX=-0.033;entryY=0.233;entryDx=0;entryDy=0;entryPerimeter=0;dashed=1;exitX=0.065;exitY=0.328;exitDx=0;exitDy=0;exitPerimeter=0;" parent="146" edge="1">
                    <mxGeometry width="50" height="50" relative="1" as="geometry">
                        <mxPoint x="109.98750000000018" as="sourcePoint"/>
                        <mxPoint y="0.08000000000004093" as="targetPoint"/>
                    </mxGeometry>
                </mxCell>
                <mxCell id="148" value="リダイレクト&lt;br&gt;&lt;div&gt;&lt;div&gt;index.html&lt;/div&gt;&lt;/div&gt;" style="text;html=1;align=center;verticalAlign=middle;whiteSpace=wrap;rounded=0;" parent="146" vertex="1">
                    <mxGeometry x="15" y="15.59" width="79.99" height="30" as="geometry"/>
                </mxCell>
                <mxCell id="149" value="" style="group" parent="118" vertex="1" connectable="0">
                    <mxGeometry y="770" width="260" height="220" as="geometry"/>
                </mxCell>
                <mxCell id="129" value="&lt;span style=&quot;font-weight: normal;&quot;&gt;&lt;font style=&quot;font-size: 14px;&quot;&gt;URL&lt;/font&gt;&lt;/span&gt;" style="swimlane;whiteSpace=wrap;html=1;align=left;" parent="149" vertex="1">
                    <mxGeometry width="150" height="80" as="geometry"/>
                </mxCell>
                <mxCell id="130" value="新規登録画面" style="text;align=center;verticalAlign=middle;resizable=0;points=[];autosize=1;strokeColor=none;fillColor=none;fontSize=18;fontColor=#FF9933;fontStyle=1" parent="129" vertex="1">
                    <mxGeometry x="10" y="30" width="130" height="40" as="geometry"/>
                </mxCell>
                <mxCell id="54" value="" style="shape=flexArrow;endArrow=classic;html=1;exitX=1;exitY=0.5;exitDx=0;exitDy=0;strokeColor=#FF9933;strokeWidth=2;" parent="149" edge="1">
                    <mxGeometry width="50" height="50" relative="1" as="geometry">
                        <mxPoint x="160" y="20" as="sourcePoint"/>
                        <mxPoint x="260" y="20" as="targetPoint"/>
                    </mxGeometry>
                </mxCell>
                <mxCell id="135" value="一覧に戻る(GET)&lt;div&gt;index.html&lt;/div&gt;" style="text;html=1;align=center;verticalAlign=middle;resizable=0;points=[];autosize=1;strokeColor=none;fillColor=none;" parent="149" vertex="1">
                    <mxGeometry x="140" y="30" width="120" height="40" as="geometry"/>
                </mxCell>
                <mxCell id="142" value="&lt;span style=&quot;font-weight: normal;&quot;&gt;&lt;font style=&quot;font-size: 14px;&quot;&gt;URL&lt;/font&gt;&lt;/span&gt;" style="swimlane;whiteSpace=wrap;html=1;align=left;" parent="149" vertex="1">
                    <mxGeometry y="140" width="150" height="80" as="geometry"/>
                </mxCell>
                <mxCell id="143" value="メイン画面" style="text;align=center;verticalAlign=middle;resizable=0;points=[];autosize=1;strokeColor=none;fillColor=none;fontSize=18;fontColor=#FF9933;fontStyle=1" parent="142" vertex="1">
                    <mxGeometry x="20" y="30" width="110" height="40" as="geometry"/>
                </mxCell>
                <mxCell id="17" value="" style="shape=flexArrow;endArrow=classic;html=1;strokeColor=#FF9933;strokeWidth=2;entryX=-0.033;entryY=0.233;entryDx=0;entryDy=0;entryPerimeter=0;dashed=1;exitX=0.065;exitY=0.328;exitDx=0;exitDy=0;exitPerimeter=0;" parent="149" edge="1">
                    <mxGeometry width="50" height="50" relative="1" as="geometry">
                        <mxPoint x="259.9875000000002" y="170" as="sourcePoint"/>
                        <mxPoint x="150" y="170.08000000000004" as="targetPoint"/>
                    </mxGeometry>
                </mxCell>
                <mxCell id="158" value="" style="shape=flexArrow;endArrow=classic;html=1;exitX=1;exitY=0.5;exitDx=0;exitDy=0;strokeColor=#FF9933;strokeWidth=2;entryX=-0.033;entryY=0.233;entryDx=0;entryDy=0;entryPerimeter=0;" parent="118" edge="1">
                    <mxGeometry width="50" height="50" relative="1" as="geometry">
                        <mxPoint x="315.73" y="2080.39" as="sourcePoint"/>
                        <mxPoint x="450" y="2080" as="targetPoint"/>
                    </mxGeometry>
                </mxCell>
                <mxCell id="159" value="" style="shape=flexArrow;endArrow=classic;html=1;exitX=1;exitY=0.5;exitDx=0;exitDy=0;strokeColor=#FF9933;strokeWidth=2;entryX=-0.033;entryY=0.233;entryDx=0;entryDy=0;entryPerimeter=0;dashed=1;" parent="118" edge="1">
                    <mxGeometry width="50" height="50" relative="1" as="geometry">
                        <mxPoint x="450" y="2130" as="sourcePoint"/>
                        <mxPoint x="315.75" y="2130" as="targetPoint"/>
                    </mxGeometry>
                </mxCell>
                <mxCell id="160" value="登録案件を検索" style="text;html=1;align=center;verticalAlign=middle;whiteSpace=wrap;rounded=0;" parent="118" vertex="1">
                    <mxGeometry x="331.98" y="2040" width="90" height="30" as="geometry"/>
                </mxCell>
                <mxCell id="161" value="全案件から&quot;進行中&quot;&lt;div&gt;案件を取得&lt;/div&gt;" style="text;html=1;align=center;verticalAlign=middle;whiteSpace=wrap;rounded=0;" parent="118" vertex="1">
                    <mxGeometry x="321.88" y="2150" width="120" height="30" as="geometry"/>
                </mxCell>
                <mxCell id="162" value="" style="group" parent="118" vertex="1" connectable="0">
                    <mxGeometry x="145.01" y="2160" width="109.98750000000018" height="45.59000000000003" as="geometry"/>
                </mxCell>
                <mxCell id="163" value="レスポンス&lt;div&gt;&lt;div&gt;index.html&lt;/div&gt;&lt;/div&gt;" style="text;html=1;align=center;verticalAlign=middle;whiteSpace=wrap;rounded=0;" parent="162" vertex="1">
                    <mxGeometry x="15" y="15.59" width="79.99" height="30" as="geometry"/>
                </mxCell>
                <mxCell id="164" value="" style="group" parent="118" vertex="1" connectable="0">
                    <mxGeometry y="1440" width="260" height="220" as="geometry"/>
                </mxCell>
                <mxCell id="165" value="&lt;span style=&quot;font-weight: normal;&quot;&gt;&lt;font style=&quot;font-size: 14px;&quot;&gt;URL&lt;/font&gt;&lt;/span&gt;" style="swimlane;whiteSpace=wrap;html=1;align=left;" parent="164" vertex="1">
                    <mxGeometry width="150" height="80" as="geometry"/>
                </mxCell>
                <mxCell id="166" value="編集画面" style="text;align=center;verticalAlign=middle;resizable=0;points=[];autosize=1;strokeColor=none;fillColor=none;fontSize=18;fontColor=#FF9933;fontStyle=1" parent="165" vertex="1">
                    <mxGeometry x="25" y="30" width="100" height="40" as="geometry"/>
                </mxCell>
                <mxCell id="167" value="" style="shape=flexArrow;endArrow=classic;html=1;exitX=1;exitY=0.5;exitDx=0;exitDy=0;strokeColor=#FF9933;strokeWidth=2;" parent="164" edge="1">
                    <mxGeometry width="50" height="50" relative="1" as="geometry">
                        <mxPoint x="160" y="20" as="sourcePoint"/>
                        <mxPoint x="260" y="20" as="targetPoint"/>
                    </mxGeometry>
                </mxCell>
                <mxCell id="168" value="一覧に戻る(GET)&lt;div&gt;index.html&lt;/div&gt;" style="text;html=1;align=center;verticalAlign=middle;resizable=0;points=[];autosize=1;strokeColor=none;fillColor=none;" parent="164" vertex="1">
                    <mxGeometry x="140" y="30" width="120" height="40" as="geometry"/>
                </mxCell>
                <mxCell id="169" value="&lt;span style=&quot;font-weight: normal;&quot;&gt;&lt;font style=&quot;font-size: 14px;&quot;&gt;URL&lt;/font&gt;&lt;/span&gt;" style="swimlane;whiteSpace=wrap;html=1;align=left;" parent="164" vertex="1">
                    <mxGeometry y="140" width="150" height="80" as="geometry"/>
                </mxCell>
                <mxCell id="170" value="メイン画面" style="text;align=center;verticalAlign=middle;resizable=0;points=[];autosize=1;strokeColor=none;fillColor=none;fontSize=18;fontColor=#FF9933;fontStyle=1" parent="169" vertex="1">
                    <mxGeometry x="20" y="30" width="110" height="40" as="geometry"/>
                </mxCell>
                <mxCell id="171" value="" style="shape=flexArrow;endArrow=classic;html=1;strokeColor=#FF9933;strokeWidth=2;entryX=-0.033;entryY=0.233;entryDx=0;entryDy=0;entryPerimeter=0;dashed=1;exitX=0.065;exitY=0.328;exitDx=0;exitDy=0;exitPerimeter=0;" parent="164" edge="1">
                    <mxGeometry width="50" height="50" relative="1" as="geometry">
                        <mxPoint x="259.9875000000002" y="170" as="sourcePoint"/>
                        <mxPoint x="150" y="170.08000000000004" as="targetPoint"/>
                    </mxGeometry>
                </mxCell>
                <mxCell id="172" value="" style="shape=flexArrow;endArrow=classic;html=1;exitX=1;exitY=0.5;exitDx=0;exitDy=0;strokeColor=#FF9933;strokeWidth=2;entryX=-0.033;entryY=0.233;entryDx=0;entryDy=0;entryPerimeter=0;" parent="118" edge="1">
                    <mxGeometry width="50" height="50" relative="1" as="geometry">
                        <mxPoint x="315.73" y="1530.3899999999999" as="sourcePoint"/>
                        <mxPoint x="450" y="1530" as="targetPoint"/>
                    </mxGeometry>
                </mxCell>
                <mxCell id="173" value="" style="shape=flexArrow;endArrow=classic;html=1;exitX=1;exitY=0.5;exitDx=0;exitDy=0;strokeColor=#FF9933;strokeWidth=2;entryX=-0.033;entryY=0.233;entryDx=0;entryDy=0;entryPerimeter=0;dashed=1;" parent="118" edge="1">
                    <mxGeometry width="50" height="50" relative="1" as="geometry">
                        <mxPoint x="450" y="1580" as="sourcePoint"/>
                        <mxPoint x="315.75" y="1580" as="targetPoint"/>
                    </mxGeometry>
                </mxCell>
                <mxCell id="174" value="登録案件を検索" style="text;html=1;align=center;verticalAlign=middle;whiteSpace=wrap;rounded=0;" parent="118" vertex="1">
                    <mxGeometry x="331.98" y="1490" width="90" height="30" as="geometry"/>
                </mxCell>
                <mxCell id="175" value="全案件から&quot;進行中&quot;&lt;div&gt;案件を取得&lt;/div&gt;" style="text;html=1;align=center;verticalAlign=middle;whiteSpace=wrap;rounded=0;" parent="118" vertex="1">
                    <mxGeometry x="321.88" y="1600" width="120" height="30" as="geometry"/>
                </mxCell>
                <mxCell id="176" value="" style="group" parent="118" vertex="1" connectable="0">
                    <mxGeometry x="142.5" y="1610" width="109.98750000000018" height="45.59000000000003" as="geometry"/>
                </mxCell>
                <mxCell id="177" value="レスポンス&lt;div&gt;&lt;div&gt;index.html&lt;/div&gt;&lt;/div&gt;" style="text;html=1;align=center;verticalAlign=middle;whiteSpace=wrap;rounded=0;" parent="176" vertex="1">
                    <mxGeometry x="15" y="15.59" width="79.99" height="30" as="geometry"/>
                </mxCell>
                <mxCell id="151" value="&lt;span style=&quot;font-weight: normal;&quot;&gt;&lt;font style=&quot;font-size: 14px;&quot;&gt;URL&lt;/font&gt;&lt;/span&gt;" style="swimlane;whiteSpace=wrap;html=1;align=left;" parent="118" vertex="1">
                    <mxGeometry y="1990" width="150" height="80" as="geometry"/>
                </mxCell>
                <mxCell id="152" value="完了一覧画面" style="text;align=center;verticalAlign=middle;resizable=0;points=[];autosize=1;strokeColor=none;fillColor=none;fontSize=18;fontColor=#FF9933;fontStyle=1" parent="151" vertex="1">
                    <mxGeometry x="10" y="30" width="130" height="40" as="geometry"/>
                </mxCell>
                <mxCell id="153" value="" style="shape=flexArrow;endArrow=classic;html=1;exitX=1;exitY=0.5;exitDx=0;exitDy=0;strokeColor=#FF9933;strokeWidth=2;" parent="118" edge="1">
                    <mxGeometry width="50" height="50" relative="1" as="geometry">
                        <mxPoint x="160" y="2010" as="sourcePoint"/>
                        <mxPoint x="260" y="2010" as="targetPoint"/>
                    </mxGeometry>
                </mxCell>
                <mxCell id="154" value="一覧に戻る(GET)&lt;div&gt;index.html&lt;/div&gt;" style="text;html=1;align=center;verticalAlign=middle;resizable=0;points=[];autosize=1;strokeColor=none;fillColor=none;" parent="118" vertex="1">
                    <mxGeometry x="140" y="2020" width="120" height="40" as="geometry"/>
                </mxCell>
                <mxCell id="155" value="&lt;span style=&quot;font-weight: normal;&quot;&gt;&lt;font style=&quot;font-size: 14px;&quot;&gt;URL&lt;/font&gt;&lt;/span&gt;" style="swimlane;whiteSpace=wrap;html=1;align=left;" parent="118" vertex="1">
                    <mxGeometry y="2130" width="150" height="80" as="geometry"/>
                </mxCell>
                <mxCell id="156" value="メイン画面" style="text;align=center;verticalAlign=middle;resizable=0;points=[];autosize=1;strokeColor=none;fillColor=none;fontSize=18;fontColor=#FF9933;fontStyle=1" parent="155" vertex="1">
                    <mxGeometry x="20" y="30" width="110" height="40" as="geometry"/>
                </mxCell>
                <mxCell id="157" value="" style="shape=flexArrow;endArrow=classic;html=1;strokeColor=#FF9933;strokeWidth=2;entryX=-0.033;entryY=0.233;entryDx=0;entryDy=0;entryPerimeter=0;dashed=1;exitX=0.065;exitY=0.328;exitDx=0;exitDy=0;exitPerimeter=0;" parent="118" edge="1">
                    <mxGeometry width="50" height="50" relative="1" as="geometry">
                        <mxPoint x="259.9875000000002" y="2160" as="sourcePoint"/>
                        <mxPoint x="150" y="2160.08" as="targetPoint"/>
                    </mxGeometry>
                </mxCell>
                <mxCell id="179" value="&lt;span style=&quot;font-weight: normal;&quot;&gt;&lt;font style=&quot;font-size: 14px;&quot;&gt;URL&lt;/font&gt;&lt;/span&gt;" style="swimlane;whiteSpace=wrap;html=1;align=left;" parent="118" vertex="1">
                    <mxGeometry y="1730" width="150" height="80" as="geometry"/>
                </mxCell>
                <mxCell id="180" value="メイン画面" style="text;align=center;verticalAlign=middle;resizable=0;points=[];autosize=1;strokeColor=none;fillColor=none;fontSize=18;fontColor=#FF9933;fontStyle=1" parent="179" vertex="1">
                    <mxGeometry x="20" y="30" width="110" height="40" as="geometry"/>
                </mxCell>
                <mxCell id="112" value="" style="rounded=0;whiteSpace=wrap;html=1;dashed=1;fillColor=none;strokeColor=#0000FF;" parent="118" vertex="1">
                    <mxGeometry x="-40" y="480" width="590" height="530" as="geometry"/>
                </mxCell>
                <mxCell id="2" value="Webブラウザ" style="rounded=1;whiteSpace=wrap;strokeColor=#FF9933;strokeWidth=2;fontStyle=1;fontSize=18;fontColor=#FF9933;" parent="118" vertex="1">
                    <mxGeometry x="-10" y="20" width="190" height="40" as="geometry"/>
                </mxCell>
                <mxCell id="3" value="Flaskアプリ" style="rounded=1;whiteSpace=wrap;strokeColor=#FF9933;strokeWidth=2;fontSize=18;fontStyle=1;fontColor=#FF9933;" parent="118" vertex="1">
                    <mxGeometry x="190" y="20" width="190" height="40" as="geometry"/>
                </mxCell>
                <mxCell id="4" value="DB todoテーブル" style="rounded=1;whiteSpace=wrap;strokeColor=#FF9933;strokeWidth=2;fontStyle=1;fontSize=18;fontColor=#FF9933;" parent="118" vertex="1">
                    <mxGeometry x="390" y="20" width="190" height="40" as="geometry"/>
                </mxCell>
                <mxCell id="7" value="&lt;font style=&quot;font-size: 14px; font-weight: normal;&quot;&gt;URL&lt;/font&gt;" style="swimlane;whiteSpace=wrap;html=1;align=left;" parent="118" vertex="1">
                    <mxGeometry y="130" width="150" height="90" as="geometry"/>
                </mxCell>
                <mxCell id="9" value="" style="rounded=0;whiteSpace=wrap;html=1;" parent="118" vertex="1">
                    <mxGeometry x="256.25" y="150" width="57.5" height="2580" as="geometry"/>
                </mxCell>
                <mxCell id="10" value="" style="shape=flexArrow;endArrow=classic;html=1;exitX=1;exitY=0.5;exitDx=0;exitDy=0;strokeColor=#FF9933;strokeWidth=2;" parent="118" source="7" edge="1">
                    <mxGeometry width="50" height="50" relative="1" as="geometry">
                        <mxPoint x="230" y="180" as="sourcePoint"/>
                        <mxPoint x="260" y="175" as="targetPoint"/>
                    </mxGeometry>
                </mxCell>
                <mxCell id="14" value="" style="shape=cylinder3;whiteSpace=wrap;html=1;boundedLbl=1;backgroundOutline=1;size=15;" parent="118" vertex="1">
                    <mxGeometry x="450" y="150" width="60" height="2580" as="geometry"/>
                </mxCell>
                <mxCell id="15" value="" style="shape=flexArrow;endArrow=classic;html=1;exitX=1;exitY=0.5;exitDx=0;exitDy=0;strokeColor=#FF9933;strokeWidth=2;entryX=-0.033;entryY=0.233;entryDx=0;entryDy=0;entryPerimeter=0;" parent="118" edge="1">
                    <mxGeometry width="50" height="50" relative="1" as="geometry">
                        <mxPoint x="315.73" y="860.39" as="sourcePoint"/>
                        <mxPoint x="450" y="859.9999999999999" as="targetPoint"/>
                    </mxGeometry>
                </mxCell>
                <mxCell id="16" value="" style="shape=flexArrow;endArrow=classic;html=1;exitX=1;exitY=0.5;exitDx=0;exitDy=0;strokeColor=#FF9933;strokeWidth=2;entryX=-0.033;entryY=0.233;entryDx=0;entryDy=0;entryPerimeter=0;dashed=1;" parent="118" edge="1">
                    <mxGeometry width="50" height="50" relative="1" as="geometry">
                        <mxPoint x="450" y="910" as="sourcePoint"/>
                        <mxPoint x="315.75" y="910" as="targetPoint"/>
                    </mxGeometry>
                </mxCell>
                <mxCell id="18" value="&lt;font&gt;リクエスト&lt;/font&gt;&lt;div&gt;&lt;font&gt;http://127.0.0.1:5000/&lt;/font&gt;&lt;/div&gt;" style="text;html=1;align=center;verticalAlign=middle;whiteSpace=wrap;rounded=0;" parent="118" vertex="1">
                    <mxGeometry x="137.49" y="130" width="120" height="30" as="geometry"/>
                </mxCell>
                <mxCell id="19" value="登録案件を検索" style="text;html=1;align=center;verticalAlign=middle;whiteSpace=wrap;rounded=0;" parent="118" vertex="1">
                    <mxGeometry x="336.87" y="820" width="90" height="30" as="geometry"/>
                </mxCell>
                <mxCell id="21" value="全案件から&quot;進行中&quot;&lt;div&gt;案件を取得&lt;/div&gt;" style="text;html=1;align=center;verticalAlign=middle;whiteSpace=wrap;rounded=0;" parent="118" vertex="1">
                    <mxGeometry x="325" y="930" width="120" height="30" as="geometry"/>
                </mxCell>
                <mxCell id="33" value="" style="shape=flexArrow;endArrow=classic;html=1;exitX=1;exitY=0.5;exitDx=0;exitDy=0;strokeColor=#FF9933;strokeWidth=2;" parent="118" edge="1">
                    <mxGeometry width="50" height="50" relative="1" as="geometry">
                        <mxPoint x="160" y="390" as="sourcePoint"/>
                        <mxPoint x="260" y="390" as="targetPoint"/>
                    </mxGeometry>
                </mxCell>
                <mxCell id="34" value="&lt;font&gt;GETリクエスト&lt;/font&gt;&lt;div&gt;&lt;font&gt;http://127.0.0.1:5000&lt;/font&gt;&lt;/div&gt;&lt;div&gt;&lt;font&gt;/todo_regist&lt;/font&gt;&lt;/div&gt;" style="text;html=1;align=center;verticalAlign=middle;whiteSpace=wrap;rounded=0;" parent="118" vertex="1">
                    <mxGeometry x="137.49" y="410" width="120" height="30" as="geometry"/>
                </mxCell>
                <mxCell id="60" value="" style="group" parent="118" vertex="1" connectable="0">
                    <mxGeometry x="315.73" y="610" width="136.25" height="45.389999999999986" as="geometry"/>
                </mxCell>
                <mxCell id="58" value="" style="shape=flexArrow;endArrow=classic;html=1;exitX=1;exitY=0.5;exitDx=0;exitDy=0;strokeColor=#FF9933;strokeWidth=2;entryX=-0.033;entryY=0.233;entryDx=0;entryDy=0;entryPerimeter=0;" parent="60" edge="1">
                    <mxGeometry width="50" height="50" relative="1" as="geometry">
                        <mxPoint y="45.389999999999986" as="sourcePoint"/>
                        <mxPoint x="134.26999999999998" y="44.999999999999886" as="targetPoint"/>
                    </mxGeometry>
                </mxCell>
                <mxCell id="59" value="新しいタスクの保存(INSERT)" style="text;html=1;align=center;verticalAlign=middle;whiteSpace=wrap;rounded=0;" parent="60" vertex="1">
                    <mxGeometry x="8.13" width="120" height="30" as="geometry"/>
                </mxCell>
                <mxCell id="61" value="" style="group" parent="118" vertex="1" connectable="0">
                    <mxGeometry x="145.01" y="940" width="109.98750000000018" height="45.59000000000003" as="geometry"/>
                </mxCell>
                <mxCell id="22" value="レスポンス&lt;div&gt;&lt;div&gt;index.html&lt;/div&gt;&lt;/div&gt;" style="text;html=1;align=center;verticalAlign=middle;whiteSpace=wrap;rounded=0;" parent="61" vertex="1">
                    <mxGeometry x="15" y="15.59" width="79.99" height="30" as="geometry"/>
                </mxCell>
                <mxCell id="62" value="" style="group" parent="118" vertex="1" connectable="0">
                    <mxGeometry x="150" y="319.99999999999994" width="109.98750000000018" height="45.59000000000003" as="geometry"/>
                </mxCell>
                <mxCell id="63" value="" style="shape=flexArrow;endArrow=classic;html=1;strokeColor=#FF9933;strokeWidth=2;entryX=-0.033;entryY=0.233;entryDx=0;entryDy=0;entryPerimeter=0;dashed=1;exitX=0.065;exitY=0.328;exitDx=0;exitDy=0;exitPerimeter=0;" parent="62" edge="1">
                    <mxGeometry width="50" height="50" relative="1" as="geometry">
                        <mxPoint x="109.98750000000018" as="sourcePoint"/>
                        <mxPoint y="0.08000000000004093" as="targetPoint"/>
                    </mxGeometry>
                </mxCell>
                <mxCell id="64" value="レスポンス&lt;div&gt;index.html&lt;/div&gt;" style="text;html=1;align=center;verticalAlign=middle;whiteSpace=wrap;rounded=0;" parent="62" vertex="1">
                    <mxGeometry x="10.000000000000009" y="15.590000000000032" width="70" height="30" as="geometry"/>
                </mxCell>
                <mxCell id="65" value="&lt;span style=&quot;font-weight: normal;&quot;&gt;&lt;font style=&quot;font-size: 14px;&quot;&gt;URL&lt;/font&gt;&lt;/span&gt;" style="swimlane;whiteSpace=wrap;html=1;align=left;" parent="118" vertex="1">
                    <mxGeometry y="1030" width="150" height="80" as="geometry"/>
                </mxCell>
                <mxCell id="66" value="メイン画面" style="text;align=center;verticalAlign=middle;resizable=0;points=[];autosize=1;strokeColor=none;fillColor=none;fontSize=18;fontColor=#FF9933;fontStyle=1" parent="65" vertex="1">
                    <mxGeometry x="20" y="30" width="110" height="40" as="geometry"/>
                </mxCell>
                <mxCell id="69" value="" style="shape=flexArrow;endArrow=classic;html=1;exitX=1;exitY=0.5;exitDx=0;exitDy=0;strokeColor=#FF9933;strokeWidth=2;" parent="118" edge="1">
                    <mxGeometry width="50" height="50" relative="1" as="geometry">
                        <mxPoint x="154.99" y="1050" as="sourcePoint"/>
                        <mxPoint x="254.99" y="1050" as="targetPoint"/>
                    </mxGeometry>
                </mxCell>
                <mxCell id="70" value="&lt;font&gt;GETリクエスト&lt;/font&gt;&lt;div&gt;&lt;font&gt;http://127.0.0.1:5000&lt;/font&gt;&lt;/div&gt;&lt;div&gt;&lt;font&gt;/todo_edit&lt;/font&gt;&lt;/div&gt;" style="text;html=1;align=center;verticalAlign=middle;whiteSpace=wrap;rounded=0;" parent="118" vertex="1">
                    <mxGeometry x="140" y="1067.69" width="120" height="30" as="geometry"/>
                </mxCell>
                <mxCell id="72" value="" style="group" parent="118" vertex="1" connectable="0">
                    <mxGeometry x="313.75" y="1060" width="136.25" height="45.389999999999986" as="geometry"/>
                </mxCell>
                <mxCell id="73" value="" style="shape=flexArrow;endArrow=classic;html=1;exitX=1;exitY=0.5;exitDx=0;exitDy=0;strokeColor=#FF9933;strokeWidth=2;entryX=-0.033;entryY=0.233;entryDx=0;entryDy=0;entryPerimeter=0;" parent="72" edge="1">
                    <mxGeometry width="50" height="50" relative="1" as="geometry">
                        <mxPoint y="45.389999999999986" as="sourcePoint"/>
                        <mxPoint x="134.26999999999998" y="44.999999999999886" as="targetPoint"/>
                    </mxGeometry>
                </mxCell>
                <mxCell id="74" value="&lt;div&gt;指定した案件を検索(SELECT)&lt;/div&gt;" style="text;html=1;align=center;verticalAlign=middle;whiteSpace=wrap;rounded=0;" parent="72" vertex="1">
                    <mxGeometry x="8.13" width="120" height="30" as="geometry"/>
                </mxCell>
                <mxCell id="75" value="" style="shape=flexArrow;endArrow=classic;html=1;exitX=1;exitY=0.5;exitDx=0;exitDy=0;strokeColor=#FF9933;strokeWidth=2;entryX=-0.033;entryY=0.233;entryDx=0;entryDy=0;entryPerimeter=0;dashed=1;" parent="118" edge="1">
                    <mxGeometry width="50" height="50" relative="1" as="geometry">
                        <mxPoint x="448" y="1160" as="sourcePoint"/>
                        <mxPoint x="313.75" y="1160" as="targetPoint"/>
                    </mxGeometry>
                </mxCell>
                <mxCell id="76" value="&lt;span style=&quot;background-color: transparent;&quot;&gt;指定した案件を取得&lt;/span&gt;" style="text;html=1;align=center;verticalAlign=middle;whiteSpace=wrap;rounded=0;" parent="118" vertex="1">
                    <mxGeometry x="320" y="1180" width="120" height="30" as="geometry"/>
                </mxCell>
                <mxCell id="85" value="" style="shape=flexArrow;endArrow=classic;html=1;strokeColor=#FF9933;strokeWidth=2;entryX=-0.033;entryY=0.233;entryDx=0;entryDy=0;entryPerimeter=0;dashed=1;exitX=0.065;exitY=0.328;exitDx=0;exitDy=0;exitPerimeter=0;" parent="118" edge="1">
                    <mxGeometry width="50" height="50" relative="1" as="geometry">
                        <mxPoint x="254.98750000000018" y="1372.3" as="sourcePoint"/>
                        <mxPoint x="145" y="1372.38" as="targetPoint"/>
                    </mxGeometry>
                </mxCell>
                <mxCell id="86" value="リダイレクト&lt;br&gt;&lt;div&gt;index.html&lt;/div&gt;" style="text;html=1;align=center;verticalAlign=middle;whiteSpace=wrap;rounded=0;" parent="118" vertex="1">
                    <mxGeometry x="167.5" y="1387.89" width="74.99" height="30" as="geometry"/>
                </mxCell>
                <mxCell id="89" value="" style="shape=flexArrow;endArrow=classic;html=1;exitX=1;exitY=0.5;exitDx=0;exitDy=0;strokeColor=#FF9933;strokeWidth=2;" parent="118" edge="1">
                    <mxGeometry width="50" height="50" relative="1" as="geometry">
                        <mxPoint x="159.99" y="1750" as="sourcePoint"/>
                        <mxPoint x="259.99" y="1750" as="targetPoint"/>
                    </mxGeometry>
                </mxCell>
                <mxCell id="90" value="&lt;font&gt;GETリクエスト&lt;/font&gt;&lt;div&gt;&lt;font&gt;http://127.0.0.1:5000&lt;/font&gt;&lt;/div&gt;&lt;div&gt;&lt;font&gt;/todo_complete&lt;/font&gt;&lt;/div&gt;" style="text;html=1;align=center;verticalAlign=middle;whiteSpace=wrap;rounded=0;" parent="118" vertex="1">
                    <mxGeometry x="144.99" y="1770" width="120" height="30" as="geometry"/>
                </mxCell>
                <mxCell id="91" value="" style="shape=flexArrow;endArrow=classic;html=1;exitX=1;exitY=0.5;exitDx=0;exitDy=0;strokeColor=#FF9933;strokeWidth=2;entryX=-0.033;entryY=0.233;entryDx=0;entryDy=0;entryPerimeter=0;" parent="118" edge="1">
                    <mxGeometry width="50" height="50" relative="1" as="geometry">
                        <mxPoint x="319.74" y="1804.67" as="sourcePoint"/>
                        <mxPoint x="454.01" y="1804.2799999999997" as="targetPoint"/>
                    </mxGeometry>
                </mxCell>
                <mxCell id="92" value="登録案件を検索" style="text;html=1;align=center;verticalAlign=middle;whiteSpace=wrap;rounded=0;" parent="118" vertex="1">
                    <mxGeometry x="335.99" y="1764.67" width="90" height="30" as="geometry"/>
                </mxCell>
                <mxCell id="93" value="" style="shape=flexArrow;endArrow=classic;html=1;exitX=1;exitY=0.5;exitDx=0;exitDy=0;strokeColor=#FF9933;strokeWidth=2;entryX=-0.033;entryY=0.233;entryDx=0;entryDy=0;entryPerimeter=0;dashed=1;" parent="118" edge="1">
                    <mxGeometry width="50" height="50" relative="1" as="geometry">
                        <mxPoint x="453" y="1860" as="sourcePoint"/>
                        <mxPoint x="318.75" y="1860" as="targetPoint"/>
                    </mxGeometry>
                </mxCell>
                <mxCell id="94" value="全案件から&quot;完了&quot;&lt;div&gt;案件を取得&lt;/div&gt;" style="text;html=1;align=center;verticalAlign=middle;whiteSpace=wrap;rounded=0;" parent="118" vertex="1">
                    <mxGeometry x="325" y="1880" width="120" height="30" as="geometry"/>
                </mxCell>
                <mxCell id="113" value="&lt;font style=&quot;font-size: 14px;&quot;&gt;新規登録処理&lt;/font&gt;" style="rounded=0;whiteSpace=wrap;html=1;fillColor=#dae8fc;strokeColor=#6c8ebf;" parent="118" vertex="1">
                    <mxGeometry x="-50" y="540" width="20" height="420" as="geometry"/>
                </mxCell>
                <mxCell id="116" value="&lt;font style=&quot;font-size: 14px;&quot;&gt;完了一覧表示処理&lt;/font&gt;" style="rounded=0;whiteSpace=wrap;html=1;fillColor=#dae8fc;strokeColor=#6c8ebf;" parent="118" vertex="1">
                    <mxGeometry x="-50" y="1780" width="20" height="360" as="geometry"/>
                </mxCell>
                <mxCell id="29" value="&lt;span style=&quot;font-weight: normal;&quot;&gt;&lt;font style=&quot;font-size: 14px;&quot;&gt;URL&lt;/font&gt;&lt;/span&gt;" style="swimlane;whiteSpace=wrap;html=1;align=left;" parent="118" vertex="1">
                    <mxGeometry y="280" width="146.25" height="180" as="geometry"/>
                </mxCell>
                <mxCell id="30" value="メイン画面" style="text;align=center;verticalAlign=middle;resizable=0;points=[];autosize=1;strokeColor=none;fillColor=none;fontSize=18;fontColor=#FF9933;fontStyle=1" parent="29" vertex="1">
                    <mxGeometry x="20" y="80" width="110" height="40" as="geometry"/>
                </mxCell>
                <mxCell id="49" value="&lt;span style=&quot;font-weight: normal;&quot;&gt;&lt;font style=&quot;font-size: 14px;&quot;&gt;URL&lt;/font&gt;&lt;/span&gt;" style="swimlane;whiteSpace=wrap;html=1;align=left;container=0;" parent="118" vertex="1">
                    <mxGeometry y="1860" width="150.00150001500003" height="90" as="geometry"/>
                </mxCell>
                <mxCell id="50" value="完了一覧画面" style="text;align=center;verticalAlign=middle;resizable=0;points=[];autosize=1;fillColor=default;fontColor=#FF9933;fontSize=18;fontStyle=1" parent="49" vertex="1">
                    <mxGeometry x="10.00025000250001" y="30" width="130" height="40" as="geometry"/>
                </mxCell>
                <mxCell id="51" value="" style="shape=flexArrow;endArrow=classic;html=1;strokeColor=#FF9933;strokeWidth=2;entryX=-0.033;entryY=0.233;entryDx=0;entryDy=0;entryPerimeter=0;dashed=1;exitX=0.065;exitY=0.328;exitDx=0;exitDy=0;exitPerimeter=0;" parent="118" edge="1">
                    <mxGeometry width="50" height="50" relative="1" as="geometry">
                        <mxPoint x="259.99" y="1920" as="sourcePoint"/>
                        <mxPoint x="150.00140011400103" y="1920.08" as="targetPoint"/>
                    </mxGeometry>
                </mxCell>
                <mxCell id="52" value="レスポンス&lt;div&gt;regist_complete&lt;span style=&quot;background-color: transparent;&quot;&gt;.html&lt;/span&gt;&lt;/div&gt;" style="text;html=1;align=center;verticalAlign=middle;whiteSpace=wrap;rounded=0;" parent="118" vertex="1">
                    <mxGeometry x="162.49160001600006" y="1870" width="70.00070000700002" height="30" as="geometry"/>
                </mxCell>
                <mxCell id="115" value="&lt;font style=&quot;font-size: 14px;&quot;&gt;編集処理&lt;/font&gt;" style="rounded=0;whiteSpace=wrap;html=1;fillColor=#dae8fc;strokeColor=#6c8ebf;" parent="118" vertex="1">
                    <mxGeometry x="-50" y="1080" width="16" height="510.01" as="geometry"/>
                </mxCell>
                <mxCell id="193" value="" style="rounded=0;whiteSpace=wrap;html=1;dashed=1;fillColor=none;strokeColor=#0000FF;" vertex="1" parent="118">
                    <mxGeometry x="-40" y="2240" width="590" height="500" as="geometry"/>
                </mxCell>
                <mxCell id="194" value="" style="shape=flexArrow;endArrow=classic;html=1;exitX=1;exitY=0.5;exitDx=0;exitDy=0;strokeColor=#FF9933;strokeWidth=2;entryX=-0.033;entryY=0.233;entryDx=0;entryDy=0;entryPerimeter=0;" edge="1" parent="118">
                    <mxGeometry width="50" height="50" relative="1" as="geometry">
                        <mxPoint x="315.73" y="2600.39" as="sourcePoint"/>
                        <mxPoint x="450" y="2600" as="targetPoint"/>
                    </mxGeometry>
                </mxCell>
                <mxCell id="195" value="" style="shape=flexArrow;endArrow=classic;html=1;exitX=1;exitY=0.5;exitDx=0;exitDy=0;strokeColor=#FF9933;strokeWidth=2;entryX=-0.033;entryY=0.233;entryDx=0;entryDy=0;entryPerimeter=0;dashed=1;" edge="1" parent="118">
                    <mxGeometry width="50" height="50" relative="1" as="geometry">
                        <mxPoint x="450" y="2650" as="sourcePoint"/>
                        <mxPoint x="315.75" y="2650" as="targetPoint"/>
                    </mxGeometry>
                </mxCell>
                <mxCell id="196" value="登録案件を検索" style="text;html=1;align=center;verticalAlign=middle;whiteSpace=wrap;rounded=0;" vertex="1" parent="118">
                    <mxGeometry x="331.98" y="2560" width="90" height="30" as="geometry"/>
                </mxCell>
                <mxCell id="197" value="全案件から&quot;進行中&quot;&lt;div&gt;案件を取得&lt;/div&gt;" style="text;html=1;align=center;verticalAlign=middle;whiteSpace=wrap;rounded=0;" vertex="1" parent="118">
                    <mxGeometry x="321.88" y="2670" width="120" height="30" as="geometry"/>
                </mxCell>
                <mxCell id="198" value="" style="group" vertex="1" connectable="0" parent="118">
                    <mxGeometry x="150" y="2680" width="109.98750000000018" height="45.59000000000003" as="geometry"/>
                </mxCell>
                <mxCell id="199" value="レスポンス&lt;div&gt;&lt;div&gt;index.html&lt;/div&gt;&lt;/div&gt;" style="text;html=1;align=center;verticalAlign=middle;whiteSpace=wrap;rounded=0;" vertex="1" parent="198">
                    <mxGeometry x="15" y="15.59" width="79.99" height="30" as="geometry"/>
                </mxCell>
                <mxCell id="200" value="&lt;span style=&quot;font-weight: normal;&quot;&gt;&lt;font style=&quot;font-size: 14px;&quot;&gt;URL&lt;/font&gt;&lt;/span&gt;" style="swimlane;whiteSpace=wrap;html=1;align=left;" vertex="1" parent="118">
                    <mxGeometry y="2510" width="150" height="80" as="geometry"/>
                </mxCell>
                <mxCell id="201" value="ゴミ箱一覧画面" style="text;align=center;verticalAlign=middle;resizable=0;points=[];autosize=1;strokeColor=none;fillColor=none;fontSize=18;fontColor=#FF9933;fontStyle=1" vertex="1" parent="200">
                    <mxGeometry y="30" width="150" height="40" as="geometry"/>
                </mxCell>
                <mxCell id="202" value="" style="shape=flexArrow;endArrow=classic;html=1;exitX=1;exitY=0.5;exitDx=0;exitDy=0;strokeColor=#FF9933;strokeWidth=2;" edge="1" parent="118">
                    <mxGeometry width="50" height="50" relative="1" as="geometry">
                        <mxPoint x="160" y="2530" as="sourcePoint"/>
                        <mxPoint x="260" y="2530" as="targetPoint"/>
                    </mxGeometry>
                </mxCell>
                <mxCell id="203" value="一覧に戻る(GET)&lt;div&gt;index.html&lt;/div&gt;" style="text;html=1;align=center;verticalAlign=middle;resizable=0;points=[];autosize=1;strokeColor=none;fillColor=none;" vertex="1" parent="118">
                    <mxGeometry x="140" y="2540" width="120" height="40" as="geometry"/>
                </mxCell>
                <mxCell id="204" value="&lt;span style=&quot;font-weight: normal;&quot;&gt;&lt;font style=&quot;font-size: 14px;&quot;&gt;URL&lt;/font&gt;&lt;/span&gt;" style="swimlane;whiteSpace=wrap;html=1;align=left;" vertex="1" parent="118">
                    <mxGeometry y="2650" width="150" height="80" as="geometry"/>
                </mxCell>
                <mxCell id="205" value="メイン画面" style="text;align=center;verticalAlign=middle;resizable=0;points=[];autosize=1;strokeColor=none;fillColor=none;fontSize=18;fontColor=#FF9933;fontStyle=1" vertex="1" parent="204">
                    <mxGeometry x="20" y="30" width="110" height="40" as="geometry"/>
                </mxCell>
                <mxCell id="206" value="" style="shape=flexArrow;endArrow=classic;html=1;strokeColor=#FF9933;strokeWidth=2;entryX=-0.033;entryY=0.233;entryDx=0;entryDy=0;entryPerimeter=0;dashed=1;exitX=0.065;exitY=0.328;exitDx=0;exitDy=0;exitPerimeter=0;" edge="1" parent="118">
                    <mxGeometry width="50" height="50" relative="1" as="geometry">
                        <mxPoint x="259.9875000000002" y="2680" as="sourcePoint"/>
                        <mxPoint x="150" y="2680.08" as="targetPoint"/>
                    </mxGeometry>
                </mxCell>
                <mxCell id="207" value="&lt;span style=&quot;font-weight: normal;&quot;&gt;&lt;font style=&quot;font-size: 14px;&quot;&gt;URL&lt;/font&gt;&lt;/span&gt;" style="swimlane;whiteSpace=wrap;html=1;align=left;" vertex="1" parent="118">
                    <mxGeometry y="2250" width="150" height="80" as="geometry"/>
                </mxCell>
                <mxCell id="208" value="メイン画面" style="text;align=center;verticalAlign=middle;resizable=0;points=[];autosize=1;strokeColor=none;fillColor=none;fontSize=18;fontColor=#FF9933;fontStyle=1" vertex="1" parent="207">
                    <mxGeometry x="20" y="30" width="110" height="40" as="geometry"/>
                </mxCell>
                <mxCell id="209" value="" style="shape=flexArrow;endArrow=classic;html=1;exitX=1;exitY=0.5;exitDx=0;exitDy=0;strokeColor=#FF9933;strokeWidth=2;" edge="1" parent="118">
                    <mxGeometry width="50" height="50" relative="1" as="geometry">
                        <mxPoint x="159.99" y="2270" as="sourcePoint"/>
                        <mxPoint x="259.99" y="2270" as="targetPoint"/>
                    </mxGeometry>
                </mxCell>
                <mxCell id="210" value="&lt;font&gt;GETリクエスト&lt;/font&gt;&lt;div&gt;&lt;font&gt;http://127.0.0.1:5000&lt;/font&gt;&lt;/div&gt;&lt;div&gt;&lt;font&gt;/todo_complete&lt;/font&gt;&lt;/div&gt;" style="text;html=1;align=center;verticalAlign=middle;whiteSpace=wrap;rounded=0;" vertex="1" parent="118">
                    <mxGeometry x="144.99" y="2290" width="120" height="30" as="geometry"/>
                </mxCell>
                <mxCell id="211" value="" style="shape=flexArrow;endArrow=classic;html=1;exitX=1;exitY=0.5;exitDx=0;exitDy=0;strokeColor=#FF9933;strokeWidth=2;entryX=-0.033;entryY=0.233;entryDx=0;entryDy=0;entryPerimeter=0;" edge="1" parent="118">
                    <mxGeometry width="50" height="50" relative="1" as="geometry">
                        <mxPoint x="319.74" y="2324.67" as="sourcePoint"/>
                        <mxPoint x="454.01" y="2324.2799999999997" as="targetPoint"/>
                    </mxGeometry>
                </mxCell>
                <mxCell id="212" value="登録案件を検索" style="text;html=1;align=center;verticalAlign=middle;whiteSpace=wrap;rounded=0;" vertex="1" parent="118">
                    <mxGeometry x="335.99" y="2284.67" width="90" height="30" as="geometry"/>
                </mxCell>
                <mxCell id="213" value="" style="shape=flexArrow;endArrow=classic;html=1;exitX=1;exitY=0.5;exitDx=0;exitDy=0;strokeColor=#FF9933;strokeWidth=2;entryX=-0.033;entryY=0.233;entryDx=0;entryDy=0;entryPerimeter=0;dashed=1;" edge="1" parent="118">
                    <mxGeometry width="50" height="50" relative="1" as="geometry">
                        <mxPoint x="453" y="2380" as="sourcePoint"/>
                        <mxPoint x="318.75" y="2380" as="targetPoint"/>
                    </mxGeometry>
                </mxCell>
                <mxCell id="214" value="全案件から&quot;完了&quot;&lt;div&gt;案件を取得&lt;/div&gt;" style="text;html=1;align=center;verticalAlign=middle;whiteSpace=wrap;rounded=0;" vertex="1" parent="118">
                    <mxGeometry x="321.88" y="2400" width="120" height="30" as="geometry"/>
                </mxCell>
                <mxCell id="215" value="&lt;span style=&quot;font-weight: normal;&quot;&gt;&lt;font style=&quot;font-size: 14px;&quot;&gt;URL&lt;/font&gt;&lt;/span&gt;" style="swimlane;whiteSpace=wrap;html=1;align=left;container=0;" vertex="1" parent="118">
                    <mxGeometry y="2380" width="150.00150001500003" height="90" as="geometry"/>
                </mxCell>
                <mxCell id="216" value="ゴミ箱一覧画面" style="text;align=center;verticalAlign=middle;resizable=0;points=[];autosize=1;fillColor=default;fontColor=#FF9933;fontSize=18;fontStyle=1" vertex="1" parent="215">
                    <mxGeometry x="0.00025000250001028235" y="30" width="150" height="40" as="geometry"/>
                </mxCell>
                <mxCell id="217" value="" style="shape=flexArrow;endArrow=classic;html=1;strokeColor=#FF9933;strokeWidth=2;entryX=-0.033;entryY=0.233;entryDx=0;entryDy=0;entryPerimeter=0;dashed=1;exitX=0.065;exitY=0.328;exitDx=0;exitDy=0;exitPerimeter=0;" edge="1" parent="118">
                    <mxGeometry width="50" height="50" relative="1" as="geometry">
                        <mxPoint x="259.99" y="2440" as="sourcePoint"/>
                        <mxPoint x="150.00140011400103" y="2440.08" as="targetPoint"/>
                    </mxGeometry>
                </mxCell>
                <mxCell id="218" value="レスポンス&lt;div&gt;&lt;span style=&quot;background-color: transparent;&quot;&gt;trash.html&lt;/span&gt;&lt;/div&gt;" style="text;html=1;align=center;verticalAlign=middle;whiteSpace=wrap;rounded=0;" vertex="1" parent="118">
                    <mxGeometry x="165.00160001600005" y="2390" width="70.00070000700002" height="30" as="geometry"/>
                </mxCell>
                <mxCell id="41" value="&lt;span style=&quot;font-weight: normal;&quot;&gt;&lt;font style=&quot;font-size: 14px;&quot;&gt;URL&lt;/font&gt;&lt;/span&gt;" style="swimlane;whiteSpace=wrap;html=1;align=left;" parent="118" vertex="1">
                    <mxGeometry x="-0.009999999999998224" y="1150" width="150" height="170" as="geometry"/>
                </mxCell>
                <mxCell id="42" value="編集画面" style="text;align=center;verticalAlign=middle;resizable=0;points=[];autosize=1;fillColor=default;fontColor=#FF9933;fontSize=18;fontStyle=1" parent="41" vertex="1">
                    <mxGeometry x="25.00025000250001" y="80" width="100" height="40" as="geometry"/>
                </mxCell>
                <mxCell id="43" value="" style="shape=flexArrow;endArrow=classic;html=1;strokeColor=#FF9933;strokeWidth=2;entryX=-0.033;entryY=0.233;entryDx=0;entryDy=0;entryPerimeter=0;dashed=1;exitX=0.065;exitY=0.328;exitDx=0;exitDy=0;exitPerimeter=0;" parent="118" edge="1">
                    <mxGeometry width="50" height="50" relative="1" as="geometry">
                        <mxPoint x="249.99" y="1210" as="sourcePoint"/>
                        <mxPoint x="140.00140011400103" y="1210.08" as="targetPoint"/>
                    </mxGeometry>
                </mxCell>
                <mxCell id="44" value="レスポンス&lt;div&gt;regist_todo.html&lt;/div&gt;" style="text;html=1;align=center;verticalAlign=middle;whiteSpace=wrap;rounded=0;" parent="118" vertex="1">
                    <mxGeometry x="164.99160001600006" y="1160" width="70.00070000700002" height="30" as="geometry"/>
                </mxCell>
                <mxCell id="78" value="" style="shape=flexArrow;endArrow=classic;html=1;exitX=1;exitY=0.5;exitDx=0;exitDy=0;strokeColor=#FF9933;strokeWidth=2;" parent="118" edge="1">
                    <mxGeometry width="50" height="50" relative="1" as="geometry">
                        <mxPoint x="149.99" y="1260" as="sourcePoint"/>
                        <mxPoint x="249.99" y="1260" as="targetPoint"/>
                    </mxGeometry>
                </mxCell>
                <mxCell id="79" value="&lt;font&gt;入力内容を送信(POST)&lt;/font&gt;" style="text;html=1;align=center;verticalAlign=middle;whiteSpace=wrap;rounded=0;" parent="118" vertex="1">
                    <mxGeometry x="144.99" y="1280" width="120" height="30" as="geometry"/>
                </mxCell>
                <mxCell id="31" value="&lt;span style=&quot;font-weight: normal;&quot;&gt;&lt;font style=&quot;font-size: 14px;&quot;&gt;URL&lt;/font&gt;&lt;/span&gt;" style="swimlane;whiteSpace=wrap;html=1;align=left;" parent="118" vertex="1">
                    <mxGeometry x="-0.01" y="490" width="150" height="150" as="geometry"/>
                </mxCell>
                <mxCell id="32" value="新規登録画面" style="text;align=center;verticalAlign=middle;resizable=0;points=[];autosize=1;strokeColor=none;fillColor=none;fontStyle=1;fontSize=18;fontColor=#FF9933;" parent="31" vertex="1">
                    <mxGeometry x="10" y="65" width="130" height="40" as="geometry"/>
                </mxCell>
                <mxCell id="35" value="" style="shape=flexArrow;endArrow=classic;html=1;strokeColor=#FF9933;strokeWidth=2;entryX=-0.033;entryY=0.233;entryDx=0;entryDy=0;entryPerimeter=0;dashed=1;exitX=0.065;exitY=0.328;exitDx=0;exitDy=0;exitPerimeter=0;" parent="118" edge="1">
                    <mxGeometry width="50" height="50" relative="1" as="geometry">
                        <mxPoint x="249.98750000000018" y="550" as="sourcePoint"/>
                        <mxPoint x="140" y="550.08" as="targetPoint"/>
                    </mxGeometry>
                </mxCell>
                <mxCell id="36" value="レスポンス&lt;div&gt;regist_todo.html&lt;/div&gt;" style="text;html=1;align=center;verticalAlign=middle;whiteSpace=wrap;rounded=0;" parent="118" vertex="1">
                    <mxGeometry x="165" y="500" width="70" height="30" as="geometry"/>
                </mxCell>
                <mxCell id="57" value="&lt;font&gt;入力内容を送信(POST)&lt;/font&gt;" style="text;html=1;align=center;verticalAlign=middle;whiteSpace=wrap;rounded=0;" parent="118" vertex="1">
                    <mxGeometry x="137.49" y="610" width="120" height="30" as="geometry"/>
                </mxCell>
                <mxCell id="134" value="" style="shape=flexArrow;endArrow=classic;html=1;exitX=1;exitY=0.5;exitDx=0;exitDy=0;strokeColor=#FF9933;strokeWidth=2;" parent="118" edge="1">
                    <mxGeometry width="50" height="50" relative="1" as="geometry">
                        <mxPoint x="159.99" y="600" as="sourcePoint"/>
                        <mxPoint x="259.99" y="600" as="targetPoint"/>
                    </mxGeometry>
                </mxCell>
                <mxCell id="83" value="" style="group" parent="118" vertex="1" connectable="0">
                    <mxGeometry x="311.88" y="1270" width="136.25" height="45.389999999999986" as="geometry"/>
                </mxCell>
                <mxCell id="81" value="" style="shape=flexArrow;endArrow=classic;html=1;exitX=1;exitY=0.5;exitDx=0;exitDy=0;strokeColor=#FF9933;strokeWidth=2;entryX=-0.033;entryY=0.233;entryDx=0;entryDy=0;entryPerimeter=0;" parent="83" edge="1">
                    <mxGeometry width="50" height="50" relative="1" as="geometry">
                        <mxPoint y="45.389999999999986" as="sourcePoint"/>
                        <mxPoint x="134.26999999999998" y="44.999999999999886" as="targetPoint"/>
                    </mxGeometry>
                </mxCell>
                <mxCell id="82" value="登録内容を変更する(UPDATE)" style="text;html=1;align=center;verticalAlign=middle;whiteSpace=wrap;rounded=0;" parent="83" vertex="1">
                    <mxGeometry x="8.13" width="120" height="30" as="geometry"/>
                </mxCell>
                <mxCell id="220" value="&lt;font style=&quot;font-size: 14px;&quot;&gt;ゴミ箱一覧表示処理&lt;/font&gt;" style="rounded=0;whiteSpace=wrap;html=1;fillColor=#dae8fc;strokeColor=#6c8ebf;" vertex="1" parent="118">
                    <mxGeometry x="-50" y="2300" width="20" height="360" as="geometry"/>
                </mxCell>
                <mxCell id="1" parent="0"/>
                <mxCell id="191" value="" style="rounded=0;whiteSpace=wrap;html=1;dashed=1;fillColor=none;strokeColor=#0000FF;" parent="1" vertex="1">
                    <mxGeometry x="-40" y="120" width="590" height="350" as="geometry"/>
                </mxCell>
                <mxCell id="192" value="&lt;font style=&quot;font-size: 14px;&quot;&gt;メイン画面表示処理&lt;/font&gt;" style="rounded=0;whiteSpace=wrap;html=1;fillColor=#dae8fc;strokeColor=#6c8ebf;" parent="1" vertex="1">
                    <mxGeometry x="-50" y="160" width="20" height="280" as="geometry"/>
                </mxCell>
            </root>
        </mxGraphModel>
    </diagram>
</mxfile>